<svg width="1280" height="720" viewBox="0 0 1280 720" fill="none" xmlns="http://www.w3.org/2000/svg">
<g clip-path="url(#clip0_3_6)">
<rect width="1280" height="720" fill="white"/>
<rect x="-32" y="-26" width="1361" height="790" fill="black"/>
<rect x="-16" y="-26" width="1312" height="409" fill="url(#paint0_linear_3_6)"/>
<circle cx="837" cy="257" r="112" fill="url(#paint1_linear_3_6)"/>
<rect x="-11" y="2" width="380" height="1" fill="black" fill-opacity="0.05"/>
<rect x="369" y="2" width="380" height="1" fill="black" fill-opacity="0.05"/>
<rect x="749" y="2" width="380" height="1" fill="black" fill-opacity="0.05"/>
<rect x="-11" y="7" width="380" height="1" fill="black" fill-opacity="0.05"/>
<rect x="369" y="7" width="380" height="1" fill="black" fill-opacity="0.05"/>
<rect x="749" y="7" width="380" height="1" fill="black" fill-opacity="0.05"/>
<rect x="-11" y="12" width="380" height="1" fill="black" fill-opacity="0.05"/>
<rect x="369" y="12" width="380" height="1" fill="black" fill-opacity="0.05"/>
<rect x="749" y="12" width="380" height="1" fill="black" fill-opacity="0.05"/>
<rect x="-11" y="17" width="380" height="1" fill="black" fill-opacity="0.05"/>
<rect x="369" y="17" width="380" height="1" fill="black" fill-opacity="0.05"/>
<rect x="749" y="17" width="380" height="1" fill="black" fill-opacity="0.05"/>
<rect x="-11" y="22" width="380" height="1" fill="black" fill-opacity="0.05"/>
<rect x="369" y="22" width="380" height="1" fill="black" fill-opacity="0.05"/>
<rect x="749" y="22" width="380" height="1" fill="black" fill-opacity="0.05"/>
<rect x="-11" y="27" width="380" height="1" fill="black" fill-opacity="0.05"/>
<rect x="369" y="27" width="380" height="1" fill="black" fill-opacity="0.05"/>
<rect x="749" y="27" width="380" height="1" fill="black" fill-opacity="0.05"/>
<rect x="-11" y="32" width="380" height="1" fill="black" fill-opacity="0.05"/>
<rect x="369" y="32" width="380" height="1" fill="black" fill-opacity="0.05"/>
<rect x="749" y="32" width="380" height="1" fill="black" fill-opacity="0.05"/>
<rect x="-11" y="37" width="380" height="1" fill="black" fill-opacity="0.05"/>
<rect x="369" y="37" width="380" height="1" fill="black" fill-opacity="0.05"/>
<rect x="749" y="37" width="380" height="1" fill="black" fill-opacity="0.05"/>
<rect x="-11" y="42" width="380" height="1" fill="black" fill-opacity="0.05"/>
<rect x="369" y="42" width="380" height="1" fill="black" fill-opacity="0.05"/>
<rect x="749" y="42" width="380" height="1" fill="black" fill-opacity="0.05"/>
<rect x="-11" y="47" width="380" height="1" fill="black" fill-opacity="0.05"/>
<rect x="369" y="47" width="380" height="1" fill="black" fill-opacity="0.05"/>
<rect x="749" y="47" width="380" height="1" fill="black" fill-opacity="0.05"/>
<rect x="-11" y="52" width="380" height="1" fill="black" fill-opacity="0.05"/>
<rect x="369" y="52" width="380" height="1" fill="black" fill-opacity="0.05"/>
<rect x="749" y="52" width="380" height="1" fill="black" fill-opacity="0.05"/>
<rect x="-11" y="57" width="380" height="1" fill="black" fill-opacity="0.05"/>
<rect x="369" y="57" width="380" height="1" fill="black" fill-opacity="0.05"/>
<rect x="749" y="57" width="380" height="1" fill="black" fill-opacity="0.05"/>
<rect x="-11" y="62" width="380" height="1" fill="black" fill-opacity="0.05"/>
<rect x="369" y="62" width="380" height="1" fill="black" fill-opacity="0.05"/>
<rect x="749" y="62" width="380" height="1" fill="black" fill-opacity="0.05"/>
<rect x="-11" y="67" width="380" height="1" fill="black" fill-opacity="0.05"/>
<rect x="369" y="67" width="380" height="1" fill="black" fill-opacity="0.05"/>
<rect x="749" y="67" width="380" height="1" fill="black" fill-opacity="0.05"/>
<rect x="-11" y="72" width="380" height="1" fill="black" fill-opacity="0.05"/>
<rect x="369" y="72" width="380" height="1" fill="black" fill-opacity="0.05"/>
<rect x="749" y="72" width="380" height="1" fill="black" fill-opacity="0.05"/>
<rect x="-11" y="77" width="380" height="1" fill="black" fill-opacity="0.05"/>
<rect x="369" y="77" width="380" height="1" fill="black" fill-opacity="0.05"/>
<rect x="749" y="77" width="380" height="1" fill="black" fill-opacity="0.05"/>
<rect x="-11" y="82" width="380" height="1" fill="black" fill-opacity="0.05"/>
<rect x="369" y="82" width="380" height="1" fill="black" fill-opacity="0.05"/>
<rect x="749" y="82" width="380" height="1" fill="black" fill-opacity="0.05"/>
<rect x="-11" y="87" width="380" height="1" fill="black" fill-opacity="0.05"/>
<rect x="369" y="87" width="380" height="1" fill="black" fill-opacity="0.05"/>
<rect x="749" y="87" width="380" height="1" fill="black" fill-opacity="0.05"/>
<rect x="-11" y="92" width="380" height="1" fill="black" fill-opacity="0.05"/>
<rect x="369" y="92" width="380" height="1" fill="black" fill-opacity="0.05"/>
<rect x="749" y="92" width="380" height="1" fill="black" fill-opacity="0.05"/>
<rect x="-11" y="97" width="380" height="1" fill="black" fill-opacity="0.05"/>
<rect x="369" y="97" width="380" height="1" fill="black" fill-opacity="0.05"/>
<rect x="749" y="97" width="380" height="1" fill="black" fill-opacity="0.05"/>
<rect x="-11" y="102" width="380" height="1" fill="black" fill-opacity="0.05"/>
<rect x="369" y="102" width="380" height="1" fill="black" fill-opacity="0.05"/>
<rect x="749" y="102" width="380" height="1" fill="black" fill-opacity="0.05"/>
<rect x="-11" y="107" width="380" height="1" fill="black" fill-opacity="0.05"/>
<rect x="369" y="107" width="380" height="1" fill="black" fill-opacity="0.05"/>
<rect x="749" y="107" width="380" height="1" fill="black" fill-opacity="0.05"/>
<rect x="-11" y="112" width="380" height="1" fill="black" fill-opacity="0.05"/>
<rect x="369" y="112" width="380" height="1" fill="black" fill-opacity="0.05"/>
<rect x="749" y="112" width="380" height="1" fill="black" fill-opacity="0.05"/>
<rect x="-11" y="117" width="380" height="1" fill="black" fill-opacity="0.05"/>
<rect x="369" y="117" width="380" height="1" fill="black" fill-opacity="0.05"/>
<rect x="749" y="117" width="380" height="1" fill="black" fill-opacity="0.05"/>
<rect x="-11" y="122" width="380" height="1" fill="black" fill-opacity="0.05"/>
<rect x="369" y="122" width="380" height="1" fill="black" fill-opacity="0.05"/>
<rect x="749" y="122" width="380" height="1" fill="black" fill-opacity="0.05"/>
<rect x="-11" y="127" width="380" height="1" fill="black" fill-opacity="0.05"/>
<rect x="369" y="127" width="380" height="1" fill="black" fill-opacity="0.05"/>
<rect x="749" y="127" width="380" height="1" fill="black" fill-opacity="0.05"/>
<rect x="-11" y="132" width="380" height="1" fill="black" fill-opacity="0.05"/>
<rect x="369" y="132" width="380" height="1" fill="black" fill-opacity="0.05"/>
<rect x="749" y="132" width="380" height="1" fill="black" fill-opacity="0.05"/>
<rect x="-11" y="137" width="380" height="1" fill="black" fill-opacity="0.05"/>
<rect x="369" y="137" width="380" height="1" fill="black" fill-opacity="0.05"/>
<rect x="749" y="137" width="380" height="1" fill="black" fill-opacity="0.05"/>
<rect x="-11" y="142" width="380" height="1" fill="black" fill-opacity="0.05"/>
<rect x="369" y="142" width="380" height="1" fill="black" fill-opacity="0.05"/>
<rect x="749" y="142" width="380" height="1" fill="black" fill-opacity="0.05"/>
<rect x="-11" y="147" width="380" height="1" fill="black" fill-opacity="0.05"/>
<rect x="369" y="147" width="380" height="1" fill="black" fill-opacity="0.05"/>
<rect x="749" y="147" width="380" height="1" fill="black" fill-opacity="0.05"/>
<rect x="-11" y="152" width="380" height="1" fill="black" fill-opacity="0.05"/>
<rect x="369" y="152" width="380" height="1" fill="black" fill-opacity="0.05"/>
<rect x="749" y="152" width="380" height="1" fill="black" fill-opacity="0.05"/>
<rect x="-11" y="157" width="380" height="1" fill="black" fill-opacity="0.05"/>
<rect x="369" y="157" width="380" height="1" fill="black" fill-opacity="0.05"/>
<rect x="749" y="157" width="380" height="1" fill="black" fill-opacity="0.05"/>
<rect x="-11" y="162" width="380" height="1" fill="black" fill-opacity="0.05"/>
<rect x="369" y="162" width="380" height="1" fill="black" fill-opacity="0.05"/>
<rect x="749" y="162" width="380" height="1" fill="black" fill-opacity="0.05"/>
<rect x="-11" y="167" width="380" height="1" fill="black" fill-opacity="0.05"/>
<rect x="369" y="167" width="380" height="1" fill="black" fill-opacity="0.05"/>
<rect x="749" y="167" width="380" height="1" fill="black" fill-opacity="0.05"/>
<rect x="-11" y="172" width="380" height="1" fill="black" fill-opacity="0.05"/>
<rect x="369" y="172" width="380" height="1" fill="black" fill-opacity="0.05"/>
<rect x="749" y="172" width="380" height="1" fill="black" fill-opacity="0.05"/>
<rect x="-11" y="177" width="380" height="1" fill="black" fill-opacity="0.05"/>
<rect x="369" y="177" width="380" height="1" fill="black" fill-opacity="0.05"/>
<rect x="749" y="177" width="380" height="1" fill="black" fill-opacity="0.05"/>
<rect x="-11" y="182" width="380" height="1" fill="black" fill-opacity="0.05"/>
<rect x="369" y="182" width="380" height="1" fill="black" fill-opacity="0.05"/>
<rect x="749" y="182" width="380" height="1" fill="black" fill-opacity="0.05"/>
<rect x="-11" y="187" width="380" height="1" fill="black" fill-opacity="0.05"/>
<rect x="369" y="187" width="380" height="1" fill="black" fill-opacity="0.05"/>
<rect x="749" y="187" width="380" height="1" fill="black" fill-opacity="0.05"/>
<rect x="-11" y="192" width="380" height="1" fill="black" fill-opacity="0.05"/>
<rect x="369" y="192" width="380" height="1" fill="black" fill-opacity="0.05"/>
<rect x="749" y="192" width="380" height="1" fill="black" fill-opacity="0.05"/>
<rect x="-11" y="197" width="380" height="1" fill="black" fill-opacity="0.05"/>
<rect x="369" y="197" width="380" height="1" fill="black" fill-opacity="0.05"/>
<rect x="749" y="197" width="380" height="1" fill="black" fill-opacity="0.05"/>
<rect x="-11" y="202" width="380" height="1" fill="black" fill-opacity="0.05"/>
<rect x="369" y="202" width="380" height="1" fill="black" fill-opacity="0.05"/>
<rect x="749" y="202" width="380" height="1" fill="black" fill-opacity="0.05"/>
<rect x="-11" y="207" width="380" height="1" fill="black" fill-opacity="0.05"/>
<rect x="369" y="207" width="380" height="1" fill="black" fill-opacity="0.05"/>
<rect x="749" y="207" width="380" height="1" fill="black" fill-opacity="0.05"/>
<rect x="-11" y="212" width="380" height="1" fill="black" fill-opacity="0.05"/>
<rect x="369" y="212" width="380" height="1" fill="black" fill-opacity="0.05"/>
<rect x="749" y="212" width="380" height="1" fill="black" fill-opacity="0.05"/>
<rect x="-11" y="217" width="380" height="1" fill="black" fill-opacity="0.05"/>
<rect x="369" y="217" width="380" height="1" fill="black" fill-opacity="0.05"/>
<rect x="749" y="217" width="380" height="1" fill="black" fill-opacity="0.05"/>
<rect x="-11" y="222" width="380" height="1" fill="black" fill-opacity="0.05"/>
<rect x="369" y="222" width="380" height="1" fill="black" fill-opacity="0.05"/>
<rect x="749" y="222" width="380" height="1" fill="black" fill-opacity="0.05"/>
<rect x="-11" y="227" width="380" height="1" fill="black" fill-opacity="0.05"/>
<rect x="369" y="227" width="380" height="1" fill="black" fill-opacity="0.05"/>
<rect x="749" y="227" width="380" height="1" fill="black" fill-opacity="0.05"/>
<rect x="-11" y="232" width="380" height="1" fill="black" fill-opacity="0.05"/>
<rect x="369" y="232" width="380" height="1" fill="black" fill-opacity="0.05"/>
<rect x="749" y="232" width="380" height="1" fill="black" fill-opacity="0.05"/>
<rect x="-11" y="237" width="380" height="1" fill="black" fill-opacity="0.05"/>
<rect x="369" y="237" width="380" height="1" fill="black" fill-opacity="0.05"/>
<rect x="749" y="237" width="380" height="1" fill="black" fill-opacity="0.05"/>
<rect x="-11" y="242" width="380" height="1" fill="black" fill-opacity="0.05"/>
<rect x="369" y="242" width="380" height="1" fill="black" fill-opacity="0.05"/>
<rect x="749" y="242" width="380" height="1" fill="black" fill-opacity="0.05"/>
<rect x="-11" y="247" width="380" height="1" fill="black" fill-opacity="0.05"/>
<rect x="369" y="247" width="380" height="1" fill="black" fill-opacity="0.05"/>
<rect x="749" y="247" width="380" height="1" fill="black" fill-opacity="0.05"/>
<rect x="-11" y="252" width="380" height="1" fill="black" fill-opacity="0.05"/>
<rect x="369" y="252" width="380" height="1" fill="black" fill-opacity="0.05"/>
<rect x="749" y="252" width="380" height="1" fill="black" fill-opacity="0.05"/>
<rect x="-11" y="257" width="380" height="1" fill="black" fill-opacity="0.05"/>
<rect x="369" y="257" width="380" height="1" fill="black" fill-opacity="0.05"/>
<rect x="749" y="257" width="380" height="1" fill="black" fill-opacity="0.05"/>
<rect x="-11" y="262" width="380" height="1" fill="black" fill-opacity="0.05"/>
<rect x="369" y="262" width="380" height="1" fill="black" fill-opacity="0.05"/>
<rect x="749" y="262" width="380" height="1" fill="black" fill-opacity="0.05"/>
<rect x="-11" y="267" width="380" height="1" fill="black" fill-opacity="0.05"/>
<rect x="369" y="267" width="380" height="1" fill="black" fill-opacity="0.05"/>
<rect x="749" y="267" width="380" height="1" fill="black" fill-opacity="0.05"/>
<rect x="-11" y="272" width="380" height="1" fill="black" fill-opacity="0.05"/>
<rect x="369" y="272" width="380" height="1" fill="black" fill-opacity="0.05"/>
<rect x="749" y="272" width="380" height="1" fill="black" fill-opacity="0.05"/>
<rect x="-11" y="277" width="380" height="1" fill="black" fill-opacity="0.05"/>
<rect x="369" y="277" width="380" height="1" fill="black" fill-opacity="0.05"/>
<rect x="749" y="277" width="380" height="1" fill="black" fill-opacity="0.05"/>
<rect x="-11" y="282" width="380" height="1" fill="black" fill-opacity="0.05"/>
<rect x="369" y="282" width="380" height="1" fill="black" fill-opacity="0.05"/>
<rect x="749" y="282" width="380" height="1" fill="black" fill-opacity="0.05"/>
<rect x="-11" y="287" width="380" height="1" fill="black" fill-opacity="0.05"/>
<rect x="369" y="287" width="380" height="1" fill="black" fill-opacity="0.05"/>
<rect x="749" y="287" width="380" height="1" fill="black" fill-opacity="0.05"/>
<rect x="-11" y="292" width="380" height="1" fill="black" fill-opacity="0.05"/>
<rect x="369" y="292" width="380" height="1" fill="black" fill-opacity="0.05"/>
<rect x="749" y="292" width="380" height="1" fill="black" fill-opacity="0.05"/>
<rect x="-11" y="297" width="380" height="1" fill="black" fill-opacity="0.05"/>
<rect x="369" y="297" width="380" height="1" fill="black" fill-opacity="0.05"/>
<rect x="749" y="297" width="380" height="1" fill="black" fill-opacity="0.05"/>
<rect x="-11" y="302" width="380" height="1" fill="black" fill-opacity="0.05"/>
<rect x="369" y="302" width="380" height="1" fill="black" fill-opacity="0.05"/>
<rect x="749" y="302" width="380" height="1" fill="black" fill-opacity="0.05"/>
<rect x="-11" y="307" width="380" height="1" fill="black" fill-opacity="0.05"/>
<rect x="369" y="307" width="380" height="1" fill="black" fill-opacity="0.05"/>
<rect x="749" y="307" width="380" height="1" fill="black" fill-opacity="0.05"/>
<rect x="-11" y="312" width="380" height="1" fill="black" fill-opacity="0.05"/>
<rect x="369" y="312" width="380" height="1" fill="black" fill-opacity="0.05"/>
<rect x="749" y="312" width="380" height="1" fill="black" fill-opacity="0.05"/>
<rect x="-11" y="317" width="380" height="1" fill="black" fill-opacity="0.05"/>
<rect x="369" y="317" width="380" height="1" fill="black" fill-opacity="0.05"/>
<rect x="749" y="317" width="380" height="1" fill="black" fill-opacity="0.05"/>
<rect x="-11" y="322" width="380" height="1" fill="black" fill-opacity="0.05"/>
<rect x="369" y="322" width="380" height="1" fill="black" fill-opacity="0.05"/>
<rect x="749" y="322" width="380" height="1" fill="black" fill-opacity="0.05"/>
<rect x="-11" y="327" width="380" height="1" fill="black" fill-opacity="0.05"/>
<rect x="369" y="327" width="380" height="1" fill="black" fill-opacity="0.05"/>
<rect x="749" y="327" width="380" height="1" fill="black" fill-opacity="0.05"/>
<rect x="-11" y="332" width="380" height="1" fill="black" fill-opacity="0.05"/>
<rect x="369" y="332" width="380" height="1" fill="black" fill-opacity="0.05"/>
<rect x="749" y="332" width="380" height="1" fill="black" fill-opacity="0.05"/>
<rect x="-11" y="337" width="380" height="1" fill="black" fill-opacity="0.05"/>
<rect x="369" y="337" width="380" height="1" fill="black" fill-opacity="0.05"/>
<rect x="749" y="337" width="380" height="1" fill="black" fill-opacity="0.05"/>
<rect x="-11" y="342" width="380" height="1" fill="black" fill-opacity="0.05"/>
<rect x="369" y="342" width="380" height="1" fill="black" fill-opacity="0.05"/>
<rect x="749" y="342" width="380" height="1" fill="black" fill-opacity="0.05"/>
<rect x="-11" y="347" width="380" height="1" fill="black" fill-opacity="0.05"/>
<rect x="369" y="347" width="380" height="1" fill="black" fill-opacity="0.05"/>
<rect x="749" y="347" width="380" height="1" fill="black" fill-opacity="0.05"/>
<rect x="-11" y="352" width="380" height="1" fill="black" fill-opacity="0.05"/>
<rect x="369" y="352" width="380" height="1" fill="black" fill-opacity="0.05"/>
<rect x="749" y="352" width="380" height="1" fill="black" fill-opacity="0.05"/>
<rect x="-11" y="357" width="380" height="1" fill="black" fill-opacity="0.05"/>
<rect x="369" y="357" width="380" height="1" fill="black" fill-opacity="0.05"/>
<rect x="749" y="357" width="380" height="1" fill="black" fill-opacity="0.05"/>
<rect x="-11" y="362" width="380" height="1" fill="black" fill-opacity="0.05"/>
<rect x="369" y="362" width="380" height="1" fill="black" fill-opacity="0.05"/>
<rect x="749" y="362" width="380" height="1" fill="black" fill-opacity="0.05"/>
<rect x="-11" y="367" width="380" height="1" fill="black" fill-opacity="0.05"/>
<rect x="369" y="367" width="380" height="1" fill="black" fill-opacity="0.05"/>
<rect x="749" y="367" width="380" height="1" fill="black" fill-opacity="0.05"/>
<rect x="-11" y="372" width="380" height="1" fill="black" fill-opacity="0.05"/>
<rect x="369" y="372" width="380" height="1" fill="black" fill-opacity="0.05"/>
<rect x="749" y="372" width="380" height="1" fill="black" fill-opacity="0.05"/>
<rect x="-11" y="377" width="380" height="1" fill="black" fill-opacity="0.05"/>
<rect x="369" y="377" width="380" height="1" fill="black" fill-opacity="0.05"/>
<rect x="749" y="377" width="380" height="1" fill="black" fill-opacity="0.05"/>
<rect x="-11" y="382" width="380" height="1" fill="black" fill-opacity="0.05"/>
<rect x="369" y="382" width="380" height="1" fill="black" fill-opacity="0.05"/>
<rect x="749" y="382" width="380" height="1" fill="black" fill-opacity="0.05"/>
<rect x="-11" y="387" width="380" height="1" fill="black" fill-opacity="0.05"/>
<rect x="369" y="387" width="380" height="1" fill="black" fill-opacity="0.05"/>
<rect x="749" y="387" width="380" height="1" fill="black" fill-opacity="0.05"/>
<rect x="-11" y="392" width="380" height="1" fill="black" fill-opacity="0.05"/>
<rect x="369" y="392" width="380" height="1" fill="black" fill-opacity="0.05"/>
<rect x="749" y="392" width="380" height="1" fill="black" fill-opacity="0.05"/>
<rect x="-11" y="397" width="380" height="1" fill="black" fill-opacity="0.05"/>
<rect x="369" y="397" width="380" height="1" fill="black" fill-opacity="0.05"/>
<rect x="749" y="397" width="380" height="1" fill="black" fill-opacity="0.05"/>
<rect x="-11" y="402" width="380" height="1" fill="black" fill-opacity="0.05"/>
<rect x="369" y="402" width="380" height="1" fill="black" fill-opacity="0.05"/>
<rect x="749" y="402" width="380" height="1" fill="black" fill-opacity="0.05"/>
<rect x="-11" y="407" width="380" height="1" fill="black" fill-opacity="0.05"/>
<rect x="369" y="407" width="380" height="1" fill="black" fill-opacity="0.05"/>
<rect x="749" y="407" width="380" height="1" fill="black" fill-opacity="0.05"/>
<rect x="-11" y="412" width="380" height="1" fill="black" fill-opacity="0.05"/>
<rect x="369" y="412" width="380" height="1" fill="black" fill-opacity="0.05"/>
<rect x="749" y="412" width="380" height="1" fill="black" fill-opacity="0.05"/>
<rect x="-11" y="417" width="380" height="1" fill="black" fill-opacity="0.05"/>
<rect x="369" y="417" width="380" height="1" fill="black" fill-opacity="0.05"/>
<rect x="749" y="417" width="380" height="1" fill="black" fill-opacity="0.05"/>
<rect x="-11" y="422" width="380" height="1" fill="black" fill-opacity="0.05"/>
<rect x="369" y="422" width="380" height="1" fill="black" fill-opacity="0.05"/>
<rect x="749" y="422" width="380" height="1" fill="black" fill-opacity="0.05"/>
<rect x="-11" y="427" width="380" height="1" fill="black" fill-opacity="0.05"/>
<rect x="369" y="427" width="380" height="1" fill="black" fill-opacity="0.05"/>
<rect x="749" y="427" width="380" height="1" fill="black" fill-opacity="0.05"/>
<rect x="-11" y="432" width="380" height="1" fill="black" fill-opacity="0.05"/>
<rect x="369" y="432" width="380" height="1" fill="black" fill-opacity="0.05"/>
<rect x="749" y="432" width="380" height="1" fill="black" fill-opacity="0.05"/>
<rect x="-11" y="437" width="380" height="1" fill="black" fill-opacity="0.05"/>
<rect x="369" y="437" width="380" height="1" fill="black" fill-opacity="0.05"/>
<rect x="749" y="437" width="380" height="1" fill="black" fill-opacity="0.05"/>
<rect x="-11" y="442" width="380" height="1" fill="black" fill-opacity="0.05"/>
<rect x="369" y="442" width="380" height="1" fill="black" fill-opacity="0.05"/>
<rect x="749" y="442" width="380" height="1" fill="black" fill-opacity="0.05"/>
<rect x="-11" y="447" width="380" height="1" fill="black" fill-opacity="0.05"/>
<rect x="369" y="447" width="380" height="1" fill="black" fill-opacity="0.05"/>
<rect x="749" y="447" width="380" height="1" fill="black" fill-opacity="0.05"/>
<rect x="-11" y="452" width="380" height="1" fill="black" fill-opacity="0.05"/>
<rect x="369" y="452" width="380" height="1" fill="black" fill-opacity="0.05"/>
<rect x="749" y="452" width="380" height="1" fill="black" fill-opacity="0.05"/>
<rect x="-11" y="457" width="380" height="1" fill="black" fill-opacity="0.05"/>
<path d="M1046.78 240.5L1090.1 265.535L1120.23 256.5L1174.22 287L1216.28 256.5H1253.31L1296 213V341.939V448H-2.47437V265.535L29.8257 240.5L116 299L177.975 265.535L235.1 299L258.955 287L330.598 319.5L419.659 256.5L494.598 319.5L563.414 240.5L627.445 287L709.319 256.5L810.763 311.779L882.312 265.535L958.27 287L1046.78 240.5Z" fill="#280337"/>
<path d="M61.2134 272.535L-16 348.939V455H1282.47V233.5L1213.14 326.5L1129.02 272.535L1072.52 298.17L1000.33 251L862.852 318.779L820.792 291.5L734.163 342L619.912 263L587.269 282L533.282 241.5L414.637 326.5L346.212 282L278.415 332.351L203.713 298.17L134.676 332.351L61.2134 272.535Z" fill="black" stroke="black"/>
</g>
<defs>
<linearGradient id="paint0_linear_3_6" x1="640" y1="-26" x2="640" y2="383" gradientUnits="userSpaceOnUse">
<stop offset="0.316"/>
<stop offset="1" stop-color="#5B007B"/>
</linearGradient>
<linearGradient id="paint1_linear_3_6" x1="837" y1="145" x2="837.991" y2="382.876" gradientUnits="userSpaceOnUse">
<stop stop-color="#AA32D5"/>
<stop offset="0.526084" stop-color="#280435" stop-opacity="0.5"/>
<stop offset="1" stop-opacity="0.25"/>
</linearGradient>
<clipPath id="clip0_3_6">
<rect width="1280" height="720" fill="white"/>
</clipPath>
</defs>
</svg>
